<svg width="400" height="105" viewBox="0 0 400 105" fill="none" xmlns="http://www.w3.org/2000/svg">
<g clip-path="url(#clip0_10_15)">
<path d="M136.415 31.9118L130.417 35.4665C129.295 33.5199 128.227 32.2503 127.211 31.6579C126.153 30.9808 124.788 30.6423 123.117 30.6423C121.065 30.6423 119.361 31.2241 118.007 32.3879C116.653 33.5305 115.976 34.9693 115.976 36.7043C115.976 39.0952 117.753 41.0207 121.308 42.4807L126.196 44.4802C130.173 46.0882 133.083 48.056 134.924 50.3835C136.764 52.6898 137.685 55.5251 137.685 58.8893C137.685 63.3962 136.183 67.1201 133.178 70.0612C130.152 73.0235 126.397 74.5046 121.911 74.5046C117.658 74.5046 114.146 73.2456 111.374 70.7277C108.644 68.2098 106.941 64.6657 106.264 60.0954L113.754 58.445C114.093 61.3226 114.685 63.3115 115.531 64.4118C117.055 66.5277 119.277 67.5856 122.197 67.5856C124.503 67.5856 126.418 66.8133 127.941 65.2687C129.465 63.7241 130.226 61.7669 130.226 59.3972C130.226 58.445 130.089 57.5775 129.814 56.7946C129.56 55.9906 129.147 55.2606 128.576 54.6047C128.026 53.9276 127.306 53.3034 126.418 52.7321C125.529 52.1397 124.471 51.579 123.244 51.05L118.515 49.0822C111.808 46.2469 108.454 42.0998 108.454 36.6408C108.454 32.9592 109.861 29.8806 112.675 27.405C115.489 24.9082 118.991 23.6599 123.18 23.6599C128.83 23.6599 133.241 26.4105 136.415 31.9118ZM169.296 44.0358V53.5256C167.667 51.5366 166.207 50.1719 164.916 49.4313C163.647 48.6696 162.155 48.2888 160.441 48.2888C157.754 48.2888 155.522 49.2303 153.744 51.1135C151.967 52.9966 151.078 55.3558 151.078 58.1911C151.078 61.0899 151.935 63.4702 153.649 65.3322C155.384 67.1942 157.595 68.1252 160.282 68.1252C161.996 68.1252 163.509 67.7549 164.821 67.0143C166.091 66.2949 167.582 64.8985 169.296 62.8249V72.2512C166.397 73.7534 163.499 74.5046 160.6 74.5046C155.818 74.5046 151.819 72.96 148.603 69.8708C145.387 66.7604 143.779 62.8989 143.779 58.2863C143.779 53.6737 145.408 49.7805 148.666 46.6066C151.925 43.4328 155.924 41.8459 160.663 41.8459C163.71 41.8459 166.588 42.5759 169.296 44.0358ZM177.929 20.0099H185.07V45.2736C187.609 42.9885 190.413 41.8459 193.481 41.8459C196.972 41.8459 199.765 42.9779 201.86 45.2419C203.637 47.2097 204.526 50.3517 204.526 54.6682V73.6159H197.385V55.3347C197.385 52.8591 196.94 51.0711 196.052 49.9709C195.184 48.8495 193.777 48.2888 191.83 48.2888C189.334 48.2888 187.577 49.0611 186.562 50.6057C185.567 52.1714 185.07 54.8586 185.07 58.6672V73.6159H177.929V20.0099ZM213.603 42.7028H220.744V45.5593C222.119 44.1205 223.294 43.1472 224.267 42.6393C225.304 42.1104 226.605 41.8459 228.171 41.8459C231.662 41.8459 234.423 43.3693 236.454 46.4162C238.697 43.3693 241.733 41.8459 245.563 41.8459C252.524 41.8459 256.005 46.0671 256.005 54.5095V73.6159H248.832V56.4455C248.832 53.4833 248.473 51.3885 247.753 50.1613C247.013 48.9129 245.796 48.2888 244.103 48.2888C242.135 48.2888 240.697 49.0293 239.787 50.5104C238.898 51.9916 238.454 54.3719 238.454 57.6516V73.6159H231.281V56.5407C231.281 51.0394 229.694 48.2888 226.52 48.2888C224.51 48.2888 223.04 49.0399 222.109 50.5422C221.199 52.0445 220.744 54.4142 220.744 57.6516V73.6159H213.603V42.7028ZM272.16 42.7028V73.6159H265.019V42.7028H272.16ZM263.94 29.8488C263.94 28.6004 264.395 27.5213 265.304 26.6115C266.214 25.7017 267.304 25.2468 268.573 25.2468C269.864 25.2468 270.964 25.7017 271.874 26.6115C272.784 27.5002 273.239 28.5899 273.239 29.8806C273.239 31.1712 272.784 32.2715 271.874 33.1813C270.986 34.0912 269.896 34.5461 268.605 34.5461C267.315 34.5461 266.214 34.0912 265.304 33.1813C264.395 32.2715 263.94 31.1607 263.94 29.8488ZM289.965 53.716V73.6159H282.57V24.612H290.949C295.054 24.612 298.154 24.8976 300.248 25.4689C302.364 26.0402 304.226 27.1193 305.834 28.7062C308.648 31.4569 310.055 34.9269 310.055 39.1164C310.055 43.6021 308.553 47.1568 305.549 49.7805C302.544 52.4042 298.492 53.716 293.393 53.716H289.965ZM289.965 46.8605H292.726C299.518 46.8605 302.914 44.2474 302.914 39.0212C302.914 33.9642 299.413 31.4357 292.409 31.4357H289.965V46.8605ZM342.841 61.7141H321.862L316.403 73.6159H308.437L332.685 21.5334L356.076 73.6159H347.983L342.841 61.7141ZM339.826 54.7634L332.558 38.1008L324.941 54.7634H339.826ZM367.819 52.4465L351.823 24.612H360.329L371.532 44.1945L382.768 24.612H391.274L375.214 52.4465V73.6159H367.819V52.4465Z" fill="white"/>
</g>
<path d="M11.4284 26.3535C15.0214 25.9805 17.9383 28.0493 18.9226 31.5C19.5534 51.5009 18.7552 65.8107 18.9226 85.8564C19.9497 90.7638 26.6334 90.3124 27.1246 85.3024C27.6475 79.9846 26.4269 73.3276 27.1302 68.1479C27.4242 65.9786 29.8971 64.0425 32.0388 63.9287L70.0009 63.9324C80.1064 63.0744 86.0179 52.6328 80.7986 43.6014C78.0726 38.8842 69.8911 36.3755 73.2255 29.6737C77.1497 21.7875 87.5474 29.2969 91.1181 33.8164C102.238 47.8951 96.4322 69.3006 79.8217 75.8289C69.7255 79.7962 55.3944 76.7951 44.5055 77.7314C39.7235 78.1418 41.5246 83.1387 41.253 86.595C39.6211 107.279 9.37534 109.202 5.24271 88.7531C4.61937 68.0024 5.41395 52.2899 5.24276 31.5C5.74516 28.4074 8.31172 26.6781 11.4284 26.3535Z" fill="#BC0B27"/>
<path d="M30.7567 47.5985C15.9827 30.3172 27.4372 3.35518 50.0857 2.18755C61.6854 1.59067 73.793 2.65012 85.4448 2.19687C93.8979 3.56595 93.5035 15.5035 84.7098 16.1917L49.5592 16.2085C40.2166 17.7194 35.0643 28.4146 39.876 36.6888C45.5419 46.4328 56.2577 42.7247 65.5464 43.4111C74.9764 44.1087 74.9132 56.4938 66.2906 57.2269C61.9236 57.5981 54.8994 57.4806 50.4597 57.2269C42.7564 56.7885 35.7471 53.433 30.7586 47.5985H30.7567Z" fill="#BC0B27"/>
<path d="M51.6375 23.1416C54.0322 22.8712 61.2667 22.8152 63.3581 23.593C69.8911 26.0197 68.5644 35.8252 61.6277 36.5153C59.1678 36.7597 53.8573 36.7597 51.3975 36.5153C43.7053 35.7506 43.3983 24.0761 51.6375 23.1435V23.1416Z" fill="#BC0B27"/>
<defs>
<clipPath id="clip0_10_15">
<rect width="292" height="86" fill="white" transform="translate(102.836 5.61591)"/>
</clipPath>
</defs>
</svg>
