<svg width="400" height="105" viewBox="0 0 400 105" fill="none" xmlns="http://www.w3.org/2000/svg">
<path d="M10.4999 26.3535C14.093 25.9805 17.0098 28.0493 17.9942 31.5C18.6249 51.5009 17.8267 65.8107 17.9942 85.8564C19.0213 90.7638 25.7049 90.3124 26.1962 85.3024C26.719 79.9846 25.4984 73.3276 26.2017 68.1479C26.4957 65.9786 28.9686 64.0425 31.1103 63.9287L69.0724 63.9324C79.1779 63.0744 85.0894 52.6328 79.8701 43.6014C77.1442 38.8842 68.9626 36.3755 72.297 29.6737C76.2213 21.7875 86.6189 29.2969 90.1896 33.8164C101.309 47.8951 95.5038 69.3006 78.8932 75.8289C68.797 79.7962 54.4659 76.7951 43.577 77.7314C38.795 78.1418 40.5962 83.1387 40.3245 86.595C38.6927 107.279 8.44687 109.202 4.31424 88.7531C3.6909 68.0024 4.48548 52.2899 4.3143 31.5C4.81669 28.4074 7.38326 26.6781 10.4999 26.3535Z" fill="#BC0B27"/>
<path d="M29.8283 47.5985C15.0542 30.3172 26.5088 3.35518 49.1573 2.18755C60.7569 1.59067 72.8645 2.65012 84.5163 2.19687C92.9695 3.56595 92.575 15.5035 83.7813 16.1917L48.6307 16.2085C39.2881 17.7194 34.1358 28.4146 38.9476 36.6888C44.6134 46.4328 55.3292 42.7247 64.6179 43.4111C74.048 44.1087 73.9847 56.4938 65.3622 57.2269C60.9951 57.5981 53.9709 57.4806 49.5313 57.2269C41.8279 56.7885 34.8187 53.433 29.8301 47.5985H29.8283Z" fill="#BC0B27"/>
<path d="M50.7091 23.1416C53.1038 22.8712 60.3382 22.8152 62.4296 23.593C68.9626 26.0197 67.6359 35.8252 60.6992 36.5153C58.2393 36.7597 52.9289 36.7597 50.469 36.5153C42.7769 35.7506 42.4698 24.0761 50.7091 23.1435V23.1416Z" fill="#BC0B27"/>
<g clip-path="url(#clip0_1_6)">
<path d="M135.592 31.9118L129.593 35.4665C128.472 33.5199 127.403 32.2503 126.387 31.6579C125.33 30.9808 123.965 30.6423 122.293 30.6423C120.241 30.6423 118.538 31.2241 117.183 32.3879C115.829 33.5305 115.152 34.9693 115.152 36.7043C115.152 39.0952 116.929 41.0207 120.484 42.4807L125.372 44.4802C129.35 46.0882 132.259 48.056 134.1 50.3835C135.941 52.6898 136.861 55.5251 136.861 58.8893C136.861 63.3962 135.359 67.1201 132.354 70.0612C129.329 73.0235 125.573 74.5046 121.087 74.5046C116.834 74.5046 113.322 73.2456 110.55 70.7277C107.821 68.2098 106.117 64.6657 105.44 60.0954L112.93 58.445C113.269 61.3226 113.861 63.3115 114.708 64.4118C116.231 66.5277 118.453 67.5856 121.373 67.5856C123.679 67.5856 125.594 66.8133 127.117 65.2687C128.641 63.7241 129.403 61.7669 129.403 59.3972C129.403 58.445 129.265 57.5775 128.99 56.7946C128.736 55.9906 128.323 55.2606 127.752 54.6047C127.202 53.9276 126.483 53.3034 125.594 52.7321C124.705 52.1397 123.647 51.579 122.42 51.05L117.691 49.0822C110.984 46.2469 107.63 42.0998 107.63 36.6408C107.63 32.9592 109.037 29.8806 111.851 27.405C114.665 24.9082 118.167 23.6599 122.357 23.6599C128.006 23.6599 132.418 26.4105 135.592 31.9118ZM168.472 44.0358V53.5256C166.843 51.5366 165.383 50.1719 164.093 49.4313C162.823 48.6696 161.331 48.2888 159.617 48.2888C156.93 48.2888 154.698 49.2303 152.921 51.1135C151.143 52.9966 150.255 55.3558 150.255 58.1911C150.255 61.0899 151.112 63.4702 152.825 65.3322C154.56 67.1942 156.772 68.1252 159.459 68.1252C161.173 68.1252 162.685 67.7549 163.997 67.0143C165.267 66.2949 166.759 64.8985 168.472 62.8249V72.2512C165.574 73.7534 162.675 74.5046 159.776 74.5046C154.994 74.5046 150.995 72.96 147.779 69.8708C144.563 66.7604 142.955 62.8989 142.955 58.2863C142.955 53.6737 144.584 49.7805 147.843 46.6066C151.101 43.4328 155.1 41.8459 159.84 41.8459C162.886 41.8459 165.764 42.5759 168.472 44.0358ZM177.105 20.0099H184.246V45.2736C186.785 42.9885 189.589 41.8459 192.657 41.8459C196.148 41.8459 198.941 42.9779 201.036 45.2419C202.813 47.2097 203.702 50.3517 203.702 54.6682V73.6159H196.561V55.3347C196.561 52.8591 196.116 51.0711 195.228 49.9709C194.36 48.8495 192.953 48.2888 191.007 48.2888C188.51 48.2888 186.754 49.0611 185.738 50.6057C184.744 52.1714 184.246 54.8586 184.246 58.6672V73.6159H177.105V20.0099ZM212.779 42.7028H219.92V45.5593C221.295 44.1205 222.47 43.1472 223.443 42.6393C224.48 42.1104 225.781 41.8459 227.347 41.8459C230.838 41.8459 233.599 43.3693 235.631 46.4162C237.873 43.3693 240.91 41.8459 244.74 41.8459C251.701 41.8459 255.181 46.0671 255.181 54.5095V73.6159H248.009V56.4455C248.009 53.4833 247.649 51.3885 246.929 50.1613C246.189 48.9129 244.972 48.2888 243.28 48.2888C241.312 48.2888 239.873 49.0293 238.963 50.5104C238.074 51.9916 237.63 54.3719 237.63 57.6516V73.6159H230.457V56.5407C230.457 51.0394 228.87 48.2888 225.697 48.2888C223.686 48.2888 222.216 49.0399 221.285 50.5422C220.375 52.0445 219.92 54.4142 219.92 57.6516V73.6159H212.779V42.7028ZM271.336 42.7028V73.6159H264.195V42.7028H271.336ZM263.116 29.8488C263.116 28.6004 263.571 27.5213 264.481 26.6115C265.391 25.7017 266.48 25.2468 267.75 25.2468C269.04 25.2468 270.141 25.7017 271.051 26.6115C271.96 27.5002 272.415 28.5899 272.415 29.8806C272.415 31.1712 271.96 32.2715 271.051 33.1813C270.162 34.0912 269.072 34.5461 267.781 34.5461C266.491 34.5461 265.391 34.0912 264.481 33.1813C263.571 32.2715 263.116 31.1607 263.116 29.8488ZM289.141 53.716V73.6159H281.746V24.612H290.125C294.23 24.612 297.33 24.8976 299.425 25.4689C301.54 26.0402 303.402 27.1193 305.01 28.7062C307.825 31.4569 309.232 34.9269 309.232 39.1164C309.232 43.6021 307.729 47.1568 304.725 49.7805C301.72 52.4042 297.668 53.716 292.569 53.716H289.141ZM289.141 46.8605H291.903C298.695 46.8605 302.091 44.2474 302.091 39.0212C302.091 33.9642 298.589 31.4357 291.585 31.4357H289.141V46.8605ZM342.017 61.7141H321.038L315.579 73.6159H307.613L331.861 21.5334L355.252 73.6159H347.159L342.017 61.7141ZM339.002 54.7634L331.734 38.1008L324.117 54.7634H339.002ZM366.995 52.4465L350.999 24.612H359.505L370.709 44.1945L381.944 24.612H390.45L374.39 52.4465V73.6159H366.995V52.4465Z" fill="#401587"/>
</g>
<defs>
<clipPath id="clip0_1_6">
<rect width="292" height="86" fill="white" transform="translate(102.012 5.61591)"/>
</clipPath>
</defs>
</svg>
